<?xml version="1.0" encoding="utf-8"?>
<!-- Generator: Adobe Illustrator 15.0.0, SVG Export Plug-In . SVG Version: 6.00 Build 0)  -->
<!DOCTYPE svg PUBLIC "-//W3C//DTD SVG 1.1//EN" "http://www.w3.org/Graphics/SVG/1.1/DTD/svg11.dtd">
<svg version="1.1" id="Layer_1" xmlns="http://www.w3.org/2000/svg" xmlns:xlink="http://www.w3.org/1999/xlink" x="0px" y="0px"
	 width="500px" height="500px" viewBox="0 0 500 500" enable-background="new 0 0 500 500" xml:space="preserve">
<g>
	<path fill="#EEEEEE" d="M249.794,190.989c-32.517,0-58.864,26.358-58.864,58.864c0,32.506,26.347,58.864,58.864,58.864
		c32.516,0,58.875-26.358,58.875-58.864C308.669,217.347,282.31,190.989,249.794,190.989z"/>
	<path fill="#EEEEEE" d="M249.794,122.37c-70.407,0-127.483,57.077-127.483,127.483c0,70.406,57.077,127.494,127.483,127.494
		c70.417,0,127.484-57.088,127.484-127.494C377.278,179.447,320.212,122.37,249.794,122.37z M249.794,342.893
		c-51.381,0-93.028-41.648-93.028-93.04c0-51.381,41.647-93.028,93.028-93.028s93.028,41.647,93.028,93.028
		C342.822,301.245,301.176,342.893,249.794,342.893z"/>
	<path fill="#EEEEEE" d="M249,0C111.48,0,0,111.48,0,249C0,386.52,111.48,498,249,498c137.521,0,249-111.479,249-249
		C498,111.48,386.52,0,249,0z M249.794,412.492c-89.82,0-162.627-72.83-162.627-162.639V87.226h162.627
		c89.82,0,162.627,72.807,162.627,162.627C412.422,339.662,339.614,412.492,249.794,412.492z"/>
</g>
</svg>
