<?xml version="1.0" standalone="yes"?>
<svg width="64" height="64">
<path style="fill:#000000; stroke:none;" d="M0 0L0 25C6.11207 14.1827 11.3599 3.43143 25 1C18.0721 -1.90707 7.49701 0 0 0z"/>
<path style="fill:#cccccc; stroke:none;" d="M25 0.517746C20.7502 1.42443 16.531 3.26142 13.0008 5.78935C-14.8824 25.7558 5.84562 70.5557 39 63.4823C71.9205 56.4587 71.8638 7.52919 39 0.517746C34.6544 -0.409386 29.3456 -0.409386 25 0.517746z"/>
<path style="fill:#000000; stroke:none;" d="M39 0C49.8173 6.11207 60.5686 11.3599 63 25C65.9071 18.0721 64 7.497 64 0L39 0z"/>
<path style="fill:#001849; stroke:none;" d="M21 1L22 2L21 1M42 1L43 2L42 1z"/>
<path style="fill:#23405c; stroke:none;" d="M13 5L14 6L13 5M5 13L6 14L5 13z"/>
<path style="fill:#001849; stroke:none;" d="M1 21L2 22L1 21M62 21L63 22L62 21z"/>
<path style="fill:#043b69; stroke:none;" d="M16 38C23.1117 38.106 25.5263 28.0556 32 28.0556C38.4737 28.0556 40.8883 38.106 48 38C45.1197 33.911 37.4901 23.2068 32 23.2068C26.5099 23.2068 18.8803 33.911 16 38z"/>
<path style="fill:#000000; stroke:none;" d="M0 39L0 64L25 64C17.9967 60.0429 11.6079 57.6459 6.39043 51C3.52221 47.3465 2.24164 42.9673 0 39M63 39C60.931 50.6071 50.6071 60.931 39 63C45.9279 65.9071 56.503 64 64 64C64 56.503 65.9071 45.9279 63 39z"/>
<path style="fill:#001849; stroke:none;" d="M1 42L2 43L1 42M62 42L63 43L62 42z"/>
<path style="fill:#23405c; stroke:none;" d="M5 50L6 51L5 50M58 50L59 51L58 50M13 58L14 59L13 58M50 58L51 59L50 58z"/>
<path style="fill:#001849; stroke:none;" d="M21 62L22 63L21 62M42 62L43 63L42 62z"/>
</svg>
